M48
; DRILL file KiCad 10.0.3 date 2026-08-31T23:08:05
; FORMAT={-:-/ absolute / metric / decimal}
; #@! TF.CreationDate,2026-08-31T23:08:05-04:00
; #@! TF.GenerationSoftware,Kicad,Pcbnew,10.0.3
; #@! TF.FileFunction,Plated,1,2,PTH
FMAT,2
METRIC
; #@! TA.AperFunction,Plated,PTH,ViaDrill
T1C0.200
; #@! TA.AperFunction,Plated,PTH,ComponentDrill
T2C0.600
; #@! TA.AperFunction,Plated,PTH,ComponentDrill
T3C0.900
%
G90
G05
T1
X25.89Y-25.83
X27.134Y-44.355
X28.247Y-48.691
X28.302Y-43.745
X29.47Y-47.454
X29.597Y-37.973
X29.597Y-39.243
X29.597Y-40.513
X30.91Y-60.712
X31.045Y-40.545
X31.045Y-44.27
X31.143Y-58.156
X31.543Y-54.464
X31.909Y-49.943
X31.943Y-52.501
X31.96Y-60.695
X32.138Y-59.774
X32.874Y-30.182
X33.437Y-61.341
X33.534Y-30.74
X33.858Y-60.846
X34.193Y-53.245
X34.547Y-35.433
X34.547Y-40.513
X34.55Y-32.893
X34.581Y-58.961
X34.667Y-58.305
X35.218Y-59.092
X35.592Y-46.151
X35.592Y-47.421
X35.592Y-48.691
X35.592Y-52.501
X35.592Y-55.041
X35.77Y-43.593
X35.882Y-59.323
X36.074Y-50.506
X36.476Y-59.824
X36.752Y-40.545
X36.752Y-41.195
X36.769Y-31.011
X36.769Y-35.363
X37.046Y-57.356
X37.277Y-37.973
X37.288Y-58.135
X37.344Y-29.098
X37.344Y-32.925
X37.565Y-58.838
X37.834Y-39.224
X38.056Y-62.338
X38.667Y-52.532
X38.684Y-50.603
X39.084Y-48.622
X39.783Y-57.258
X40.189Y-56.09
X40.298Y-28.377
X40.443Y-61.274
X40.596Y-51.213
X40.596Y-53.6
X40.596Y-64.065
X41.307Y-48.165
X41.459Y-29.826
X41.646Y-55.041
X41.815Y-56.902
X41.967Y-48.825
X42.34Y-51.846
X42.56Y-57.461
X42.56Y-61.274
X43.085Y-64.167
X43.186Y-28.37
X43.237Y-55.683
X43.39Y-48.774
X43.39Y-49.943
X44.892Y-46.151
X44.892Y-51.231
X44.892Y-53.771
X44.892Y-56.311
X45.21Y-41.6
X45.676Y-62.287
X46.387Y-26.575
X47.098Y-53.55
X47.758Y-49.994
X48.26Y-62.287
X48.266Y-51.846
X48.266Y-58.624
X48.603Y-56.946
X49.079Y-26.92
X49.787Y-47.421
X49.787Y-48.691
X49.787Y-49.961
X49.787Y-53.771
X49.787Y-56.311
X51.237Y-47.399
X51.553Y-26.184
X51.987Y-58.59
X52.178Y-48.419
X52.889Y-46.676
X53.34Y-62.287
X53.448Y-59.024
X54.159Y-25.8
X54.515Y-60.916
X55.328Y-54.464
X55.836Y-60.474
X56.699Y-27.286
X57.563Y-47.924
X58.091Y-30.275
X59.087Y-46.151
X59.087Y-47.421
X59.087Y-52.501
X59.087Y-55.041
X60.386Y-48.668
X61.728Y-48.622
X62.304Y-46.151
X62.829Y-31.248
T2
X28.382Y-28.121
X30.182Y-26.321
X31.982Y-28.121
X33.782Y-26.321
X35.582Y-28.121
X37.382Y-26.321
T3
X61.779Y-27.286
X61.779Y-42.526
M30
