%TF.GenerationSoftware,KiCad,Pcbnew,10.0.3*%
%TF.CreationDate,2026-08-31T23:08:02-04:00*%
%TF.ProjectId,a2k6c,61326b36-632e-46b6-9963-61645f706362,rev?*%
%TF.SameCoordinates,Original*%
%TF.FileFunction,Legend,Top*%
%TF.FilePolarity,Positive*%
%FSLAX46Y46*%
G04 Gerber Fmt 4.6, Leading zero omitted, Abs format (unit mm)*
G04 Created by KiCad (PCBNEW 10.0.3) date 2026-08-31 23:08:02*
%MOMM*%
%LPD*%
G01*
G04 APERTURE LIST*
%ADD10C,0.000000*%
%ADD11C,0.100000*%
%ADD12C,0.120000*%
%ADD13C,0.127000*%
%ADD14C,0.200000*%
G04 APERTURE END LIST*
D10*
G36*
X30461000Y-61893000D02*
G01*
X29826000Y-62528000D01*
X29826000Y-61258000D01*
X30461000Y-61893000D01*
G37*
D11*
X30113347Y-66433071D02*
X30113347Y-66699737D01*
X30532395Y-66699737D02*
X29732395Y-66699737D01*
X29732395Y-66699737D02*
X29732395Y-66318785D01*
X30532395Y-65556880D02*
X30151442Y-65823547D01*
X30532395Y-66014023D02*
X29732395Y-66014023D01*
X29732395Y-66014023D02*
X29732395Y-65709261D01*
X29732395Y-65709261D02*
X29770490Y-65633071D01*
X29770490Y-65633071D02*
X29808585Y-65594976D01*
X29808585Y-65594976D02*
X29884776Y-65556880D01*
X29884776Y-65556880D02*
X29999061Y-65556880D01*
X29999061Y-65556880D02*
X30075252Y-65594976D01*
X30075252Y-65594976D02*
X30113347Y-65633071D01*
X30113347Y-65633071D02*
X30151442Y-65709261D01*
X30151442Y-65709261D02*
X30151442Y-66014023D01*
X29732395Y-65061642D02*
X29732395Y-64909261D01*
X29732395Y-64909261D02*
X29770490Y-64833071D01*
X29770490Y-64833071D02*
X29846680Y-64756880D01*
X29846680Y-64756880D02*
X29999061Y-64718785D01*
X29999061Y-64718785D02*
X30265728Y-64718785D01*
X30265728Y-64718785D02*
X30418109Y-64756880D01*
X30418109Y-64756880D02*
X30494300Y-64833071D01*
X30494300Y-64833071D02*
X30532395Y-64909261D01*
X30532395Y-64909261D02*
X30532395Y-65061642D01*
X30532395Y-65061642D02*
X30494300Y-65137833D01*
X30494300Y-65137833D02*
X30418109Y-65214023D01*
X30418109Y-65214023D02*
X30265728Y-65252119D01*
X30265728Y-65252119D02*
X29999061Y-65252119D01*
X29999061Y-65252119D02*
X29846680Y-65214023D01*
X29846680Y-65214023D02*
X29770490Y-65137833D01*
X29770490Y-65137833D02*
X29732395Y-65061642D01*
X30532395Y-64375928D02*
X29732395Y-64375928D01*
X29732395Y-64375928D02*
X30532395Y-63918785D01*
X30532395Y-63918785D02*
X29732395Y-63918785D01*
X29732395Y-63652119D02*
X29732395Y-63194976D01*
X30532395Y-63423548D02*
X29732395Y-63423548D01*
X53831265Y-60289895D02*
X53831265Y-59756561D01*
X53831265Y-59908942D02*
X53869360Y-59832752D01*
X53869360Y-59832752D02*
X53907455Y-59794657D01*
X53907455Y-59794657D02*
X53983646Y-59756561D01*
X53983646Y-59756561D02*
X54059836Y-59756561D01*
X54745550Y-60289895D02*
X54288407Y-60289895D01*
X54516979Y-60289895D02*
X54516979Y-59489895D01*
X54516979Y-59489895D02*
X54440788Y-59604180D01*
X54440788Y-59604180D02*
X54364598Y-59680371D01*
X54364598Y-59680371D02*
X54288407Y-59718466D01*
X27200647Y-29185695D02*
X27695885Y-29185695D01*
X27695885Y-29185695D02*
X27429219Y-29490457D01*
X27429219Y-29490457D02*
X27543504Y-29490457D01*
X27543504Y-29490457D02*
X27619695Y-29528552D01*
X27619695Y-29528552D02*
X27657790Y-29566647D01*
X27657790Y-29566647D02*
X27695885Y-29642838D01*
X27695885Y-29642838D02*
X27695885Y-29833314D01*
X27695885Y-29833314D02*
X27657790Y-29909504D01*
X27657790Y-29909504D02*
X27619695Y-29947600D01*
X27619695Y-29947600D02*
X27543504Y-29985695D01*
X27543504Y-29985695D02*
X27314933Y-29985695D01*
X27314933Y-29985695D02*
X27238742Y-29947600D01*
X27238742Y-29947600D02*
X27200647Y-29909504D01*
X28038743Y-29909504D02*
X28076838Y-29947600D01*
X28076838Y-29947600D02*
X28038743Y-29985695D01*
X28038743Y-29985695D02*
X28000647Y-29947600D01*
X28000647Y-29947600D02*
X28038743Y-29909504D01*
X28038743Y-29909504D02*
X28038743Y-29985695D01*
X28343504Y-29185695D02*
X28838742Y-29185695D01*
X28838742Y-29185695D02*
X28572076Y-29490457D01*
X28572076Y-29490457D02*
X28686361Y-29490457D01*
X28686361Y-29490457D02*
X28762552Y-29528552D01*
X28762552Y-29528552D02*
X28800647Y-29566647D01*
X28800647Y-29566647D02*
X28838742Y-29642838D01*
X28838742Y-29642838D02*
X28838742Y-29833314D01*
X28838742Y-29833314D02*
X28800647Y-29909504D01*
X28800647Y-29909504D02*
X28762552Y-29947600D01*
X28762552Y-29947600D02*
X28686361Y-29985695D01*
X28686361Y-29985695D02*
X28457790Y-29985695D01*
X28457790Y-29985695D02*
X28381599Y-29947600D01*
X28381599Y-29947600D02*
X28343504Y-29909504D01*
X29067314Y-29185695D02*
X29333981Y-29985695D01*
X29333981Y-29985695D02*
X29600647Y-29185695D01*
X31896071Y-61369395D02*
X31438928Y-61369395D01*
X31667500Y-61369395D02*
X31667500Y-60569395D01*
X31667500Y-60569395D02*
X31591309Y-60683680D01*
X31591309Y-60683680D02*
X31515119Y-60759871D01*
X31515119Y-60759871D02*
X31438928Y-60797966D01*
X30953028Y-29947600D02*
X31067314Y-29985695D01*
X31067314Y-29985695D02*
X31257790Y-29985695D01*
X31257790Y-29985695D02*
X31333981Y-29947600D01*
X31333981Y-29947600D02*
X31372076Y-29909504D01*
X31372076Y-29909504D02*
X31410171Y-29833314D01*
X31410171Y-29833314D02*
X31410171Y-29757123D01*
X31410171Y-29757123D02*
X31372076Y-29680933D01*
X31372076Y-29680933D02*
X31333981Y-29642838D01*
X31333981Y-29642838D02*
X31257790Y-29604742D01*
X31257790Y-29604742D02*
X31105409Y-29566647D01*
X31105409Y-29566647D02*
X31029219Y-29528552D01*
X31029219Y-29528552D02*
X30991124Y-29490457D01*
X30991124Y-29490457D02*
X30953028Y-29414266D01*
X30953028Y-29414266D02*
X30953028Y-29338076D01*
X30953028Y-29338076D02*
X30991124Y-29261885D01*
X30991124Y-29261885D02*
X31029219Y-29223790D01*
X31029219Y-29223790D02*
X31105409Y-29185695D01*
X31105409Y-29185695D02*
X31295886Y-29185695D01*
X31295886Y-29185695D02*
X31410171Y-29223790D01*
X32210172Y-29909504D02*
X32172076Y-29947600D01*
X32172076Y-29947600D02*
X32057791Y-29985695D01*
X32057791Y-29985695D02*
X31981600Y-29985695D01*
X31981600Y-29985695D02*
X31867314Y-29947600D01*
X31867314Y-29947600D02*
X31791124Y-29871409D01*
X31791124Y-29871409D02*
X31753029Y-29795219D01*
X31753029Y-29795219D02*
X31714933Y-29642838D01*
X31714933Y-29642838D02*
X31714933Y-29528552D01*
X31714933Y-29528552D02*
X31753029Y-29376171D01*
X31753029Y-29376171D02*
X31791124Y-29299980D01*
X31791124Y-29299980D02*
X31867314Y-29223790D01*
X31867314Y-29223790D02*
X31981600Y-29185695D01*
X31981600Y-29185695D02*
X32057791Y-29185695D01*
X32057791Y-29185695D02*
X32172076Y-29223790D01*
X32172076Y-29223790D02*
X32210172Y-29261885D01*
X32553029Y-29985695D02*
X32553029Y-29185695D01*
X33010172Y-29985695D02*
X32667314Y-29528552D01*
X33010172Y-29185695D02*
X32553029Y-29642838D01*
X34610171Y-29947600D02*
X34724457Y-29985695D01*
X34724457Y-29985695D02*
X34914933Y-29985695D01*
X34914933Y-29985695D02*
X34991124Y-29947600D01*
X34991124Y-29947600D02*
X35029219Y-29909504D01*
X35029219Y-29909504D02*
X35067314Y-29833314D01*
X35067314Y-29833314D02*
X35067314Y-29757123D01*
X35067314Y-29757123D02*
X35029219Y-29680933D01*
X35029219Y-29680933D02*
X34991124Y-29642838D01*
X34991124Y-29642838D02*
X34914933Y-29604742D01*
X34914933Y-29604742D02*
X34762552Y-29566647D01*
X34762552Y-29566647D02*
X34686362Y-29528552D01*
X34686362Y-29528552D02*
X34648267Y-29490457D01*
X34648267Y-29490457D02*
X34610171Y-29414266D01*
X34610171Y-29414266D02*
X34610171Y-29338076D01*
X34610171Y-29338076D02*
X34648267Y-29261885D01*
X34648267Y-29261885D02*
X34686362Y-29223790D01*
X34686362Y-29223790D02*
X34762552Y-29185695D01*
X34762552Y-29185695D02*
X34953029Y-29185695D01*
X34953029Y-29185695D02*
X35067314Y-29223790D01*
X35410172Y-29985695D02*
X35410172Y-29185695D01*
X35410172Y-29185695D02*
X35600648Y-29185695D01*
X35600648Y-29185695D02*
X35714934Y-29223790D01*
X35714934Y-29223790D02*
X35791124Y-29299980D01*
X35791124Y-29299980D02*
X35829219Y-29376171D01*
X35829219Y-29376171D02*
X35867315Y-29528552D01*
X35867315Y-29528552D02*
X35867315Y-29642838D01*
X35867315Y-29642838D02*
X35829219Y-29795219D01*
X35829219Y-29795219D02*
X35791124Y-29871409D01*
X35791124Y-29871409D02*
X35714934Y-29947600D01*
X35714934Y-29947600D02*
X35600648Y-29985695D01*
X35600648Y-29985695D02*
X35410172Y-29985695D01*
X36172076Y-29757123D02*
X36553029Y-29757123D01*
X36095886Y-29985695D02*
X36362553Y-29185695D01*
X36362553Y-29185695D02*
X36629219Y-29985695D01*
X59455118Y-61369395D02*
X58997975Y-61369395D01*
X59226547Y-61369395D02*
X59226547Y-60569395D01*
X59226547Y-60569395D02*
X59150356Y-60683680D01*
X59150356Y-60683680D02*
X59074166Y-60759871D01*
X59074166Y-60759871D02*
X58997975Y-60797966D01*
X59759880Y-60645585D02*
X59797976Y-60607490D01*
X59797976Y-60607490D02*
X59874166Y-60569395D01*
X59874166Y-60569395D02*
X60064642Y-60569395D01*
X60064642Y-60569395D02*
X60140833Y-60607490D01*
X60140833Y-60607490D02*
X60178928Y-60645585D01*
X60178928Y-60645585D02*
X60217023Y-60721776D01*
X60217023Y-60721776D02*
X60217023Y-60797966D01*
X60217023Y-60797966D02*
X60178928Y-60912252D01*
X60178928Y-60912252D02*
X59721785Y-61369395D01*
X59721785Y-61369395D02*
X60217023Y-61369395D01*
X27437239Y-25923790D02*
X27361049Y-25885695D01*
X27361049Y-25885695D02*
X27246763Y-25885695D01*
X27246763Y-25885695D02*
X27132477Y-25923790D01*
X27132477Y-25923790D02*
X27056287Y-25999980D01*
X27056287Y-25999980D02*
X27018192Y-26076171D01*
X27018192Y-26076171D02*
X26980096Y-26228552D01*
X26980096Y-26228552D02*
X26980096Y-26342838D01*
X26980096Y-26342838D02*
X27018192Y-26495219D01*
X27018192Y-26495219D02*
X27056287Y-26571409D01*
X27056287Y-26571409D02*
X27132477Y-26647600D01*
X27132477Y-26647600D02*
X27246763Y-26685695D01*
X27246763Y-26685695D02*
X27322954Y-26685695D01*
X27322954Y-26685695D02*
X27437239Y-26647600D01*
X27437239Y-26647600D02*
X27475335Y-26609504D01*
X27475335Y-26609504D02*
X27475335Y-26342838D01*
X27475335Y-26342838D02*
X27322954Y-26342838D01*
X27818192Y-26685695D02*
X27818192Y-25885695D01*
X27818192Y-25885695D02*
X28275335Y-26685695D01*
X28275335Y-26685695D02*
X28275335Y-25885695D01*
X28656287Y-26685695D02*
X28656287Y-25885695D01*
X28656287Y-25885695D02*
X28846763Y-25885695D01*
X28846763Y-25885695D02*
X28961049Y-25923790D01*
X28961049Y-25923790D02*
X29037239Y-25999980D01*
X29037239Y-25999980D02*
X29075334Y-26076171D01*
X29075334Y-26076171D02*
X29113430Y-26228552D01*
X29113430Y-26228552D02*
X29113430Y-26342838D01*
X29113430Y-26342838D02*
X29075334Y-26495219D01*
X29075334Y-26495219D02*
X29037239Y-26571409D01*
X29037239Y-26571409D02*
X28961049Y-26647600D01*
X28961049Y-26647600D02*
X28846763Y-26685695D01*
X28846763Y-26685695D02*
X28656287Y-26685695D01*
X32332477Y-26457123D02*
X32713430Y-26457123D01*
X32256287Y-26685695D02*
X32522954Y-25885695D01*
X32522954Y-25885695D02*
X32789620Y-26685695D01*
X36122953Y-26266647D02*
X36237239Y-26304742D01*
X36237239Y-26304742D02*
X36275334Y-26342838D01*
X36275334Y-26342838D02*
X36313430Y-26419028D01*
X36313430Y-26419028D02*
X36313430Y-26533314D01*
X36313430Y-26533314D02*
X36275334Y-26609504D01*
X36275334Y-26609504D02*
X36237239Y-26647600D01*
X36237239Y-26647600D02*
X36161049Y-26685695D01*
X36161049Y-26685695D02*
X35856287Y-26685695D01*
X35856287Y-26685695D02*
X35856287Y-25885695D01*
X35856287Y-25885695D02*
X36122953Y-25885695D01*
X36122953Y-25885695D02*
X36199144Y-25923790D01*
X36199144Y-25923790D02*
X36237239Y-25961885D01*
X36237239Y-25961885D02*
X36275334Y-26038076D01*
X36275334Y-26038076D02*
X36275334Y-26114266D01*
X36275334Y-26114266D02*
X36237239Y-26190457D01*
X36237239Y-26190457D02*
X36199144Y-26228552D01*
X36199144Y-26228552D02*
X36122953Y-26266647D01*
X36122953Y-26266647D02*
X35856287Y-26266647D01*
X25902108Y-42345230D02*
X25864013Y-42307134D01*
X25864013Y-42307134D02*
X25825918Y-42230944D01*
X25825918Y-42230944D02*
X25825918Y-42040468D01*
X25825918Y-42040468D02*
X25864013Y-41964277D01*
X25864013Y-41964277D02*
X25902108Y-41926182D01*
X25902108Y-41926182D02*
X25978299Y-41888087D01*
X25978299Y-41888087D02*
X26054489Y-41888087D01*
X26054489Y-41888087D02*
X26168775Y-41926182D01*
X26168775Y-41926182D02*
X26625918Y-42383325D01*
X26625918Y-42383325D02*
X26625918Y-41888087D01*
X25825918Y-41392848D02*
X25825918Y-41316658D01*
X25825918Y-41316658D02*
X25864013Y-41240467D01*
X25864013Y-41240467D02*
X25902108Y-41202372D01*
X25902108Y-41202372D02*
X25978299Y-41164277D01*
X25978299Y-41164277D02*
X26130680Y-41126182D01*
X26130680Y-41126182D02*
X26321156Y-41126182D01*
X26321156Y-41126182D02*
X26473537Y-41164277D01*
X26473537Y-41164277D02*
X26549727Y-41202372D01*
X26549727Y-41202372D02*
X26587823Y-41240467D01*
X26587823Y-41240467D02*
X26625918Y-41316658D01*
X26625918Y-41316658D02*
X26625918Y-41392848D01*
X26625918Y-41392848D02*
X26587823Y-41469039D01*
X26587823Y-41469039D02*
X26549727Y-41507134D01*
X26549727Y-41507134D02*
X26473537Y-41545229D01*
X26473537Y-41545229D02*
X26321156Y-41583325D01*
X26321156Y-41583325D02*
X26130680Y-41583325D01*
X26130680Y-41583325D02*
X25978299Y-41545229D01*
X25978299Y-41545229D02*
X25902108Y-41507134D01*
X25902108Y-41507134D02*
X25864013Y-41469039D01*
X25864013Y-41469039D02*
X25825918Y-41392848D01*
X25902108Y-40821420D02*
X25864013Y-40783324D01*
X25864013Y-40783324D02*
X25825918Y-40707134D01*
X25825918Y-40707134D02*
X25825918Y-40516658D01*
X25825918Y-40516658D02*
X25864013Y-40440467D01*
X25864013Y-40440467D02*
X25902108Y-40402372D01*
X25902108Y-40402372D02*
X25978299Y-40364277D01*
X25978299Y-40364277D02*
X26054489Y-40364277D01*
X26054489Y-40364277D02*
X26168775Y-40402372D01*
X26168775Y-40402372D02*
X26625918Y-40859515D01*
X26625918Y-40859515D02*
X26625918Y-40364277D01*
X25825918Y-39678562D02*
X25825918Y-39830943D01*
X25825918Y-39830943D02*
X25864013Y-39907134D01*
X25864013Y-39907134D02*
X25902108Y-39945229D01*
X25902108Y-39945229D02*
X26016394Y-40021419D01*
X26016394Y-40021419D02*
X26168775Y-40059515D01*
X26168775Y-40059515D02*
X26473537Y-40059515D01*
X26473537Y-40059515D02*
X26549727Y-40021419D01*
X26549727Y-40021419D02*
X26587823Y-39983324D01*
X26587823Y-39983324D02*
X26625918Y-39907134D01*
X26625918Y-39907134D02*
X26625918Y-39754753D01*
X26625918Y-39754753D02*
X26587823Y-39678562D01*
X26587823Y-39678562D02*
X26549727Y-39640467D01*
X26549727Y-39640467D02*
X26473537Y-39602372D01*
X26473537Y-39602372D02*
X26283061Y-39602372D01*
X26283061Y-39602372D02*
X26206870Y-39640467D01*
X26206870Y-39640467D02*
X26168775Y-39678562D01*
X26168775Y-39678562D02*
X26130680Y-39754753D01*
X26130680Y-39754753D02*
X26130680Y-39907134D01*
X26130680Y-39907134D02*
X26168775Y-39983324D01*
X26168775Y-39983324D02*
X26206870Y-40021419D01*
X26206870Y-40021419D02*
X26283061Y-40059515D01*
X26321156Y-39259514D02*
X26321156Y-38649991D01*
X25825918Y-38116657D02*
X25825918Y-38040467D01*
X25825918Y-38040467D02*
X25864013Y-37964276D01*
X25864013Y-37964276D02*
X25902108Y-37926181D01*
X25902108Y-37926181D02*
X25978299Y-37888086D01*
X25978299Y-37888086D02*
X26130680Y-37849991D01*
X26130680Y-37849991D02*
X26321156Y-37849991D01*
X26321156Y-37849991D02*
X26473537Y-37888086D01*
X26473537Y-37888086D02*
X26549727Y-37926181D01*
X26549727Y-37926181D02*
X26587823Y-37964276D01*
X26587823Y-37964276D02*
X26625918Y-38040467D01*
X26625918Y-38040467D02*
X26625918Y-38116657D01*
X26625918Y-38116657D02*
X26587823Y-38192848D01*
X26587823Y-38192848D02*
X26549727Y-38230943D01*
X26549727Y-38230943D02*
X26473537Y-38269038D01*
X26473537Y-38269038D02*
X26321156Y-38307134D01*
X26321156Y-38307134D02*
X26130680Y-38307134D01*
X26130680Y-38307134D02*
X25978299Y-38269038D01*
X25978299Y-38269038D02*
X25902108Y-38230943D01*
X25902108Y-38230943D02*
X25864013Y-38192848D01*
X25864013Y-38192848D02*
X25825918Y-38116657D01*
X26168775Y-37392848D02*
X26130680Y-37469038D01*
X26130680Y-37469038D02*
X26092584Y-37507133D01*
X26092584Y-37507133D02*
X26016394Y-37545229D01*
X26016394Y-37545229D02*
X25978299Y-37545229D01*
X25978299Y-37545229D02*
X25902108Y-37507133D01*
X25902108Y-37507133D02*
X25864013Y-37469038D01*
X25864013Y-37469038D02*
X25825918Y-37392848D01*
X25825918Y-37392848D02*
X25825918Y-37240467D01*
X25825918Y-37240467D02*
X25864013Y-37164276D01*
X25864013Y-37164276D02*
X25902108Y-37126181D01*
X25902108Y-37126181D02*
X25978299Y-37088086D01*
X25978299Y-37088086D02*
X26016394Y-37088086D01*
X26016394Y-37088086D02*
X26092584Y-37126181D01*
X26092584Y-37126181D02*
X26130680Y-37164276D01*
X26130680Y-37164276D02*
X26168775Y-37240467D01*
X26168775Y-37240467D02*
X26168775Y-37392848D01*
X26168775Y-37392848D02*
X26206870Y-37469038D01*
X26206870Y-37469038D02*
X26244965Y-37507133D01*
X26244965Y-37507133D02*
X26321156Y-37545229D01*
X26321156Y-37545229D02*
X26473537Y-37545229D01*
X26473537Y-37545229D02*
X26549727Y-37507133D01*
X26549727Y-37507133D02*
X26587823Y-37469038D01*
X26587823Y-37469038D02*
X26625918Y-37392848D01*
X26625918Y-37392848D02*
X26625918Y-37240467D01*
X26625918Y-37240467D02*
X26587823Y-37164276D01*
X26587823Y-37164276D02*
X26549727Y-37126181D01*
X26549727Y-37126181D02*
X26473537Y-37088086D01*
X26473537Y-37088086D02*
X26321156Y-37088086D01*
X26321156Y-37088086D02*
X26244965Y-37126181D01*
X26244965Y-37126181D02*
X26206870Y-37164276D01*
X26206870Y-37164276D02*
X26168775Y-37240467D01*
X26321156Y-36745228D02*
X26321156Y-36135705D01*
X25825918Y-35830943D02*
X25825918Y-35335705D01*
X25825918Y-35335705D02*
X26130680Y-35602371D01*
X26130680Y-35602371D02*
X26130680Y-35488086D01*
X26130680Y-35488086D02*
X26168775Y-35411895D01*
X26168775Y-35411895D02*
X26206870Y-35373800D01*
X26206870Y-35373800D02*
X26283061Y-35335705D01*
X26283061Y-35335705D02*
X26473537Y-35335705D01*
X26473537Y-35335705D02*
X26549727Y-35373800D01*
X26549727Y-35373800D02*
X26587823Y-35411895D01*
X26587823Y-35411895D02*
X26625918Y-35488086D01*
X26625918Y-35488086D02*
X26625918Y-35716657D01*
X26625918Y-35716657D02*
X26587823Y-35792848D01*
X26587823Y-35792848D02*
X26549727Y-35830943D01*
X26625918Y-34573800D02*
X26625918Y-35030943D01*
X26625918Y-34802371D02*
X25825918Y-34802371D01*
X25825918Y-34802371D02*
X25940203Y-34878562D01*
X25940203Y-34878562D02*
X26016394Y-34954752D01*
X26016394Y-34954752D02*
X26054489Y-35030943D01*
X27913873Y-41964277D02*
X27113873Y-41964277D01*
X27875778Y-41964277D02*
X27913873Y-42040468D01*
X27913873Y-42040468D02*
X27913873Y-42192849D01*
X27913873Y-42192849D02*
X27875778Y-42269039D01*
X27875778Y-42269039D02*
X27837682Y-42307134D01*
X27837682Y-42307134D02*
X27761492Y-42345230D01*
X27761492Y-42345230D02*
X27532920Y-42345230D01*
X27532920Y-42345230D02*
X27456730Y-42307134D01*
X27456730Y-42307134D02*
X27418635Y-42269039D01*
X27418635Y-42269039D02*
X27380539Y-42192849D01*
X27380539Y-42192849D02*
X27380539Y-42040468D01*
X27380539Y-42040468D02*
X27418635Y-41964277D01*
X27913873Y-41240467D02*
X27494825Y-41240467D01*
X27494825Y-41240467D02*
X27418635Y-41278562D01*
X27418635Y-41278562D02*
X27380539Y-41354753D01*
X27380539Y-41354753D02*
X27380539Y-41507134D01*
X27380539Y-41507134D02*
X27418635Y-41583324D01*
X27875778Y-41240467D02*
X27913873Y-41316658D01*
X27913873Y-41316658D02*
X27913873Y-41507134D01*
X27913873Y-41507134D02*
X27875778Y-41583324D01*
X27875778Y-41583324D02*
X27799587Y-41621420D01*
X27799587Y-41621420D02*
X27723397Y-41621420D01*
X27723397Y-41621420D02*
X27647206Y-41583324D01*
X27647206Y-41583324D02*
X27609111Y-41507134D01*
X27609111Y-41507134D02*
X27609111Y-41316658D01*
X27609111Y-41316658D02*
X27571016Y-41240467D01*
X27380539Y-40935705D02*
X27913873Y-40745229D01*
X27913873Y-40745229D02*
X27380539Y-40554752D01*
X27875778Y-39945228D02*
X27913873Y-40021419D01*
X27913873Y-40021419D02*
X27913873Y-40173800D01*
X27913873Y-40173800D02*
X27875778Y-40249990D01*
X27875778Y-40249990D02*
X27799587Y-40288086D01*
X27799587Y-40288086D02*
X27494825Y-40288086D01*
X27494825Y-40288086D02*
X27418635Y-40249990D01*
X27418635Y-40249990D02*
X27380539Y-40173800D01*
X27380539Y-40173800D02*
X27380539Y-40021419D01*
X27380539Y-40021419D02*
X27418635Y-39945228D01*
X27418635Y-39945228D02*
X27494825Y-39907133D01*
X27494825Y-39907133D02*
X27571016Y-39907133D01*
X27571016Y-39907133D02*
X27647206Y-40288086D01*
X27913873Y-38954752D02*
X27113873Y-38954752D01*
X27913873Y-38611895D02*
X27494825Y-38611895D01*
X27494825Y-38611895D02*
X27418635Y-38649990D01*
X27418635Y-38649990D02*
X27380539Y-38726181D01*
X27380539Y-38726181D02*
X27380539Y-38840467D01*
X27380539Y-38840467D02*
X27418635Y-38916657D01*
X27418635Y-38916657D02*
X27456730Y-38954752D01*
X27913873Y-37888085D02*
X27494825Y-37888085D01*
X27494825Y-37888085D02*
X27418635Y-37926180D01*
X27418635Y-37926180D02*
X27380539Y-38002371D01*
X27380539Y-38002371D02*
X27380539Y-38154752D01*
X27380539Y-38154752D02*
X27418635Y-38230942D01*
X27875778Y-37888085D02*
X27913873Y-37964276D01*
X27913873Y-37964276D02*
X27913873Y-38154752D01*
X27913873Y-38154752D02*
X27875778Y-38230942D01*
X27875778Y-38230942D02*
X27799587Y-38269038D01*
X27799587Y-38269038D02*
X27723397Y-38269038D01*
X27723397Y-38269038D02*
X27647206Y-38230942D01*
X27647206Y-38230942D02*
X27609111Y-38154752D01*
X27609111Y-38154752D02*
X27609111Y-37964276D01*
X27609111Y-37964276D02*
X27571016Y-37888085D01*
X27913873Y-37507132D02*
X27380539Y-37507132D01*
X27456730Y-37507132D02*
X27418635Y-37469037D01*
X27418635Y-37469037D02*
X27380539Y-37392847D01*
X27380539Y-37392847D02*
X27380539Y-37278561D01*
X27380539Y-37278561D02*
X27418635Y-37202370D01*
X27418635Y-37202370D02*
X27494825Y-37164275D01*
X27494825Y-37164275D02*
X27913873Y-37164275D01*
X27494825Y-37164275D02*
X27418635Y-37126180D01*
X27418635Y-37126180D02*
X27380539Y-37049989D01*
X27380539Y-37049989D02*
X27380539Y-36935704D01*
X27380539Y-36935704D02*
X27418635Y-36859513D01*
X27418635Y-36859513D02*
X27494825Y-36821418D01*
X27494825Y-36821418D02*
X27913873Y-36821418D01*
X27913873Y-36440465D02*
X27380539Y-36440465D01*
X27113873Y-36440465D02*
X27151968Y-36478561D01*
X27151968Y-36478561D02*
X27190063Y-36440465D01*
X27190063Y-36440465D02*
X27151968Y-36402370D01*
X27151968Y-36402370D02*
X27113873Y-36440465D01*
X27113873Y-36440465D02*
X27190063Y-36440465D01*
X27913873Y-35945228D02*
X27875778Y-36021418D01*
X27875778Y-36021418D02*
X27799587Y-36059513D01*
X27799587Y-36059513D02*
X27113873Y-36059513D01*
X27380539Y-35754751D02*
X27380539Y-35449989D01*
X27113873Y-35640465D02*
X27799587Y-35640465D01*
X27799587Y-35640465D02*
X27875778Y-35602370D01*
X27875778Y-35602370D02*
X27913873Y-35526180D01*
X27913873Y-35526180D02*
X27913873Y-35449989D01*
X27913873Y-35069037D02*
X27875778Y-35145227D01*
X27875778Y-35145227D02*
X27837682Y-35183322D01*
X27837682Y-35183322D02*
X27761492Y-35221418D01*
X27761492Y-35221418D02*
X27532920Y-35221418D01*
X27532920Y-35221418D02*
X27456730Y-35183322D01*
X27456730Y-35183322D02*
X27418635Y-35145227D01*
X27418635Y-35145227D02*
X27380539Y-35069037D01*
X27380539Y-35069037D02*
X27380539Y-34954751D01*
X27380539Y-34954751D02*
X27418635Y-34878560D01*
X27418635Y-34878560D02*
X27456730Y-34840465D01*
X27456730Y-34840465D02*
X27532920Y-34802370D01*
X27532920Y-34802370D02*
X27761492Y-34802370D01*
X27761492Y-34802370D02*
X27837682Y-34840465D01*
X27837682Y-34840465D02*
X27875778Y-34878560D01*
X27875778Y-34878560D02*
X27913873Y-34954751D01*
X27913873Y-34954751D02*
X27913873Y-35069037D01*
X27380539Y-34459512D02*
X27913873Y-34459512D01*
X27456730Y-34459512D02*
X27418635Y-34421417D01*
X27418635Y-34421417D02*
X27380539Y-34345227D01*
X27380539Y-34345227D02*
X27380539Y-34230941D01*
X27380539Y-34230941D02*
X27418635Y-34154750D01*
X27418635Y-34154750D02*
X27494825Y-34116655D01*
X27494825Y-34116655D02*
X27913873Y-34116655D01*
G36*
X40885302Y-61190999D02*
G01*
X40076858Y-61190999D01*
X39877342Y-60793493D01*
X38333880Y-60793493D01*
X38134364Y-61190999D01*
X37322409Y-61190999D01*
X37803134Y-60282415D01*
X38585908Y-60282415D01*
X39628825Y-60282415D01*
X39177281Y-59398561D01*
X39037299Y-59398561D01*
X38585908Y-60282415D01*
X37803134Y-60282415D01*
X38557820Y-58856037D01*
X39663782Y-58856037D01*
X40885302Y-61190999D01*
G37*
G36*
X41700615Y-59723252D02*
G01*
X41700615Y-59642652D01*
X41709992Y-59494679D01*
X41720681Y-59446872D01*
X41736962Y-59413324D01*
X41777704Y-59383296D01*
X41887988Y-59359153D01*
X42190399Y-59343575D01*
X42488146Y-59341317D01*
X42867962Y-59345706D01*
X42959704Y-59353166D01*
X43016626Y-59365894D01*
X43061855Y-59384011D01*
X43093837Y-59411068D01*
X43121473Y-59477436D01*
X43128672Y-59576095D01*
X43119661Y-59680824D01*
X43103756Y-59717282D01*
X43076124Y-59745322D01*
X42995669Y-59777791D01*
X42810316Y-59803966D01*
X42684150Y-59814385D01*
X41895037Y-59877502D01*
X41679702Y-59894985D01*
X41524164Y-59921191D01*
X41396786Y-59955117D01*
X41317668Y-59986972D01*
X41251376Y-60025258D01*
X41202504Y-60065062D01*
X41161662Y-60111164D01*
X41100609Y-60224229D01*
X41091687Y-60248984D01*
X41058190Y-60408001D01*
X41040828Y-60721989D01*
X41039175Y-60925079D01*
X41049708Y-61190999D01*
X43832092Y-61190999D01*
X43832092Y-60655649D01*
X41700615Y-60655649D01*
X41700615Y-60631072D01*
X41708623Y-60552761D01*
X41730178Y-60497357D01*
X41784597Y-60449415D01*
X41816172Y-60434762D01*
X41941273Y-60412640D01*
X42978158Y-60340117D01*
X43152239Y-60325898D01*
X43301146Y-60302902D01*
X43408454Y-60276321D01*
X43499745Y-60242928D01*
X43567674Y-60207631D01*
X43624462Y-60166672D01*
X43692110Y-60091295D01*
X43727111Y-60028516D01*
X43754060Y-59957207D01*
X43785308Y-59783252D01*
X43793624Y-59565562D01*
X43788378Y-59383195D01*
X43771199Y-59238150D01*
X43750701Y-59154948D01*
X43722409Y-59085266D01*
X43690724Y-59033815D01*
X43652004Y-58989664D01*
X43587086Y-58938774D01*
X43506376Y-58893992D01*
X43404996Y-58862947D01*
X43182187Y-58838203D01*
X42650840Y-58827282D01*
X42344653Y-58826728D01*
X41916394Y-58832961D01*
X41590126Y-58857052D01*
X41457641Y-58879033D01*
X41346718Y-58908977D01*
X41271515Y-58939773D01*
X41208244Y-58977080D01*
X41160800Y-59016603D01*
X41121488Y-59062265D01*
X41064655Y-59173085D01*
X41029485Y-59329090D01*
X41015013Y-59572262D01*
X41014751Y-59621738D01*
X41014751Y-59723252D01*
X41700615Y-59723252D01*
G37*
G36*
X44162888Y-58860311D02*
G01*
X44162888Y-61190999D01*
X44873330Y-61190999D01*
X44873330Y-60301039D01*
X45261828Y-60301039D01*
X46308409Y-61190999D01*
X47386436Y-61190999D01*
X45923421Y-60003520D01*
X47274389Y-58846267D01*
X46185830Y-58846267D01*
X45261828Y-59706002D01*
X44873330Y-59706002D01*
X44873330Y-58860311D01*
X44162888Y-58860311D01*
G37*
G36*
X49281198Y-58829739D02*
G01*
X49683450Y-58850887D01*
X49912089Y-58887914D01*
X50053795Y-58939928D01*
X50108719Y-58974954D01*
X50153707Y-59015863D01*
X50188392Y-59058361D01*
X50216204Y-59109221D01*
X50236854Y-59171237D01*
X50257844Y-59310313D01*
X50265754Y-59510302D01*
X49600650Y-59510302D01*
X49594926Y-59460307D01*
X49582612Y-59426293D01*
X49562182Y-59404667D01*
X49535291Y-59387682D01*
X49493946Y-59377324D01*
X49289240Y-59365894D01*
X48893719Y-59355361D01*
X48659602Y-59358824D01*
X48395519Y-59379586D01*
X48284639Y-59408178D01*
X48253137Y-59430608D01*
X48228188Y-59462901D01*
X48209713Y-59507194D01*
X48192097Y-59608570D01*
X48186789Y-59756377D01*
X48190147Y-59885826D01*
X48256157Y-59828318D01*
X48378575Y-59756034D01*
X48461422Y-59727696D01*
X48560399Y-59706914D01*
X48798499Y-59685184D01*
X49135215Y-59679288D01*
X49304723Y-59681068D01*
X49635249Y-59701763D01*
X49848638Y-59741841D01*
X49994070Y-59799240D01*
X50097628Y-59876376D01*
X50139322Y-59926308D01*
X50173272Y-59983389D01*
X50203711Y-60059021D01*
X50225479Y-60145450D01*
X50242916Y-60282584D01*
X50248199Y-60442852D01*
X50235047Y-60686198D01*
X50197883Y-60857431D01*
X50138823Y-60979391D01*
X50099066Y-61029026D01*
X50052263Y-61071352D01*
X49990667Y-61111112D01*
X49919234Y-61143371D01*
X49894252Y-61152457D01*
X49797430Y-61176876D01*
X49667172Y-61195106D01*
X49314518Y-61214715D01*
X48767782Y-61220308D01*
X48633255Y-61219674D01*
X48216605Y-61203297D01*
X47975219Y-61168641D01*
X47818074Y-61116165D01*
X47752876Y-61079020D01*
X47696777Y-61034836D01*
X47655520Y-60992304D01*
X47619316Y-60943856D01*
X47589510Y-60887821D01*
X47562343Y-60809346D01*
X47542010Y-60710916D01*
X47520566Y-60449874D01*
X48200680Y-60449874D01*
X48200961Y-60469523D01*
X48217388Y-60573701D01*
X48257475Y-60636531D01*
X48292533Y-60659661D01*
X48337151Y-60674272D01*
X48343380Y-60675799D01*
X48497751Y-60690453D01*
X48778162Y-60695338D01*
X49387243Y-60677783D01*
X49417413Y-60673875D01*
X49490886Y-60645254D01*
X49518043Y-60619313D01*
X49537948Y-60585089D01*
X49553638Y-60527340D01*
X49558671Y-60453385D01*
X49558442Y-60424772D01*
X49547467Y-60329570D01*
X49528491Y-60290077D01*
X49495589Y-60259871D01*
X49445010Y-60237714D01*
X49373004Y-60222364D01*
X49149713Y-60207131D01*
X48795717Y-60204257D01*
X48458476Y-60210895D01*
X48370677Y-60221692D01*
X48312727Y-60239367D01*
X48269428Y-60266116D01*
X48240977Y-60297570D01*
X48219986Y-60336758D01*
X48205536Y-60389044D01*
X48200680Y-60449874D01*
X47520566Y-60449874D01*
X47517452Y-60411966D01*
X47511152Y-59948871D01*
X47516579Y-59575119D01*
X47529471Y-59417133D01*
X47553284Y-59285294D01*
X47601777Y-59144261D01*
X47672092Y-59044525D01*
X47720977Y-59001739D01*
X47779702Y-58964531D01*
X47859212Y-58928770D01*
X47954024Y-58899251D01*
X48093646Y-58870823D01*
X48261250Y-58850233D01*
X48571596Y-58832108D01*
X48960276Y-58826728D01*
X49281198Y-58829739D01*
G37*
G36*
X52867856Y-60293253D02*
G01*
X52858996Y-60462765D01*
X52842783Y-60521957D01*
X52812756Y-60566771D01*
X52764445Y-60599208D01*
X52693380Y-60621267D01*
X52595091Y-60634949D01*
X52465109Y-60642253D01*
X52073456Y-60645726D01*
X51654052Y-60636554D01*
X51520183Y-60616144D01*
X51427031Y-60577234D01*
X51393418Y-60548977D01*
X51367216Y-60513860D01*
X51333360Y-60420059D01*
X51318084Y-60289869D01*
X51314008Y-60117325D01*
X51313861Y-60035882D01*
X51319133Y-59814649D01*
X51336503Y-59656742D01*
X51355246Y-59582442D01*
X51380635Y-59525840D01*
X51425907Y-59471987D01*
X51463004Y-59449061D01*
X51513822Y-59431418D01*
X51684008Y-59409246D01*
X52069945Y-59401462D01*
X52388519Y-59406418D01*
X52607025Y-59421572D01*
X52704391Y-59437976D01*
X52763974Y-59459458D01*
X52776875Y-59468476D01*
X52805193Y-59500942D01*
X52821206Y-59549630D01*
X52832899Y-59690584D01*
X53543340Y-59690584D01*
X53543340Y-59574264D01*
X53538243Y-59416052D01*
X53522103Y-59283502D01*
X53501155Y-59196492D01*
X53472193Y-59121882D01*
X53439520Y-59065297D01*
X53399741Y-59016403D01*
X53299254Y-58939171D01*
X53273910Y-58925493D01*
X53199795Y-58892806D01*
X53112447Y-58866886D01*
X52882962Y-58833666D01*
X52457175Y-58817821D01*
X52272972Y-58816958D01*
X51742405Y-58822729D01*
X51347660Y-58843590D01*
X51175815Y-58864102D01*
X51036097Y-58892117D01*
X50944414Y-58920683D01*
X50868648Y-58955202D01*
X50812800Y-58991396D01*
X50766400Y-59033069D01*
X50695930Y-59134233D01*
X50669976Y-59191565D01*
X50646985Y-59262173D01*
X50629635Y-59350491D01*
X50608429Y-59631571D01*
X50603419Y-60039393D01*
X50607912Y-60400654D01*
X50619822Y-60626492D01*
X50620974Y-60638552D01*
X50639451Y-60752632D01*
X50666774Y-60849298D01*
X50696415Y-60916502D01*
X50733462Y-60974667D01*
X50824682Y-61062782D01*
X50873002Y-61093607D01*
X50943437Y-61128052D01*
X51027016Y-61156539D01*
X51248214Y-61197077D01*
X51635120Y-61222304D01*
X52269461Y-61230077D01*
X52645995Y-61224808D01*
X52925474Y-61207460D01*
X53071970Y-61187786D01*
X53193777Y-61160866D01*
X53231930Y-61149630D01*
X53312050Y-61118378D01*
X53380861Y-61079716D01*
X53431780Y-61039429D01*
X53474910Y-60992201D01*
X53537267Y-60879323D01*
X53575628Y-60725231D01*
X53588830Y-60515209D01*
X53586822Y-60444164D01*
X53581961Y-60293253D01*
X52867856Y-60293253D01*
G37*
X53827276Y-46059395D02*
X53827276Y-46707014D01*
X53827276Y-46707014D02*
X53865371Y-46783204D01*
X53865371Y-46783204D02*
X53903466Y-46821300D01*
X53903466Y-46821300D02*
X53979657Y-46859395D01*
X53979657Y-46859395D02*
X54132038Y-46859395D01*
X54132038Y-46859395D02*
X54208228Y-46821300D01*
X54208228Y-46821300D02*
X54246323Y-46783204D01*
X54246323Y-46783204D02*
X54284419Y-46707014D01*
X54284419Y-46707014D02*
X54284419Y-46059395D01*
X54627275Y-46135585D02*
X54665371Y-46097490D01*
X54665371Y-46097490D02*
X54741561Y-46059395D01*
X54741561Y-46059395D02*
X54932037Y-46059395D01*
X54932037Y-46059395D02*
X55008228Y-46097490D01*
X55008228Y-46097490D02*
X55046323Y-46135585D01*
X55046323Y-46135585D02*
X55084418Y-46211776D01*
X55084418Y-46211776D02*
X55084418Y-46287966D01*
X55084418Y-46287966D02*
X55046323Y-46402252D01*
X55046323Y-46402252D02*
X54589180Y-46859395D01*
X54589180Y-46859395D02*
X55084418Y-46859395D01*
X54001695Y-54723143D02*
X54001695Y-54189809D01*
X54001695Y-54189809D02*
X54801695Y-54532667D01*
X54268361Y-53542190D02*
X54801695Y-53542190D01*
X53963600Y-53732666D02*
X54535028Y-53923143D01*
X54535028Y-53923143D02*
X54535028Y-53427904D01*
X54801695Y-52742190D02*
X54801695Y-53123142D01*
X54801695Y-53123142D02*
X54001695Y-53123142D01*
X54001695Y-52589809D02*
X54801695Y-52323142D01*
X54801695Y-52323142D02*
X54001695Y-52056476D01*
X54725504Y-51332666D02*
X54763600Y-51370762D01*
X54763600Y-51370762D02*
X54801695Y-51485047D01*
X54801695Y-51485047D02*
X54801695Y-51561238D01*
X54801695Y-51561238D02*
X54763600Y-51675524D01*
X54763600Y-51675524D02*
X54687409Y-51751714D01*
X54687409Y-51751714D02*
X54611219Y-51789809D01*
X54611219Y-51789809D02*
X54458838Y-51827905D01*
X54458838Y-51827905D02*
X54344552Y-51827905D01*
X54344552Y-51827905D02*
X54192171Y-51789809D01*
X54192171Y-51789809D02*
X54115980Y-51751714D01*
X54115980Y-51751714D02*
X54039790Y-51675524D01*
X54039790Y-51675524D02*
X54001695Y-51561238D01*
X54001695Y-51561238D02*
X54001695Y-51485047D01*
X54001695Y-51485047D02*
X54039790Y-51370762D01*
X54039790Y-51370762D02*
X54077885Y-51332666D01*
X54077885Y-51027905D02*
X54039790Y-50989809D01*
X54039790Y-50989809D02*
X54001695Y-50913619D01*
X54001695Y-50913619D02*
X54001695Y-50723143D01*
X54001695Y-50723143D02*
X54039790Y-50646952D01*
X54039790Y-50646952D02*
X54077885Y-50608857D01*
X54077885Y-50608857D02*
X54154076Y-50570762D01*
X54154076Y-50570762D02*
X54230266Y-50570762D01*
X54230266Y-50570762D02*
X54344552Y-50608857D01*
X54344552Y-50608857D02*
X54801695Y-51066000D01*
X54801695Y-51066000D02*
X54801695Y-50570762D01*
X54268361Y-49885047D02*
X54801695Y-49885047D01*
X53963600Y-50075523D02*
X54535028Y-50266000D01*
X54535028Y-50266000D02*
X54535028Y-49770761D01*
X54268361Y-49123142D02*
X54801695Y-49123142D01*
X53963600Y-49313618D02*
X54535028Y-49504095D01*
X54535028Y-49504095D02*
X54535028Y-49008856D01*
X39632276Y-46059395D02*
X39632276Y-46707014D01*
X39632276Y-46707014D02*
X39670371Y-46783204D01*
X39670371Y-46783204D02*
X39708466Y-46821300D01*
X39708466Y-46821300D02*
X39784657Y-46859395D01*
X39784657Y-46859395D02*
X39937038Y-46859395D01*
X39937038Y-46859395D02*
X40013228Y-46821300D01*
X40013228Y-46821300D02*
X40051323Y-46783204D01*
X40051323Y-46783204D02*
X40089419Y-46707014D01*
X40089419Y-46707014D02*
X40089419Y-46059395D01*
X40813228Y-46326061D02*
X40813228Y-46859395D01*
X40622752Y-46021300D02*
X40432275Y-46592728D01*
X40432275Y-46592728D02*
X40927514Y-46592728D01*
X39806695Y-54723143D02*
X39806695Y-54189809D01*
X39806695Y-54189809D02*
X40606695Y-54532667D01*
X40073361Y-53542190D02*
X40606695Y-53542190D01*
X39768600Y-53732666D02*
X40340028Y-53923143D01*
X40340028Y-53923143D02*
X40340028Y-53427904D01*
X40606695Y-52742190D02*
X40606695Y-53123142D01*
X40606695Y-53123142D02*
X39806695Y-53123142D01*
X39806695Y-52589809D02*
X40606695Y-52323142D01*
X40606695Y-52323142D02*
X39806695Y-52056476D01*
X40530504Y-51332666D02*
X40568600Y-51370762D01*
X40568600Y-51370762D02*
X40606695Y-51485047D01*
X40606695Y-51485047D02*
X40606695Y-51561238D01*
X40606695Y-51561238D02*
X40568600Y-51675524D01*
X40568600Y-51675524D02*
X40492409Y-51751714D01*
X40492409Y-51751714D02*
X40416219Y-51789809D01*
X40416219Y-51789809D02*
X40263838Y-51827905D01*
X40263838Y-51827905D02*
X40149552Y-51827905D01*
X40149552Y-51827905D02*
X39997171Y-51789809D01*
X39997171Y-51789809D02*
X39920980Y-51751714D01*
X39920980Y-51751714D02*
X39844790Y-51675524D01*
X39844790Y-51675524D02*
X39806695Y-51561238D01*
X39806695Y-51561238D02*
X39806695Y-51485047D01*
X39806695Y-51485047D02*
X39844790Y-51370762D01*
X39844790Y-51370762D02*
X39882885Y-51332666D01*
X39882885Y-51027905D02*
X39844790Y-50989809D01*
X39844790Y-50989809D02*
X39806695Y-50913619D01*
X39806695Y-50913619D02*
X39806695Y-50723143D01*
X39806695Y-50723143D02*
X39844790Y-50646952D01*
X39844790Y-50646952D02*
X39882885Y-50608857D01*
X39882885Y-50608857D02*
X39959076Y-50570762D01*
X39959076Y-50570762D02*
X40035266Y-50570762D01*
X40035266Y-50570762D02*
X40149552Y-50608857D01*
X40149552Y-50608857D02*
X40606695Y-51066000D01*
X40606695Y-51066000D02*
X40606695Y-50570762D01*
X40073361Y-49885047D02*
X40606695Y-49885047D01*
X39768600Y-50075523D02*
X40340028Y-50266000D01*
X40340028Y-50266000D02*
X40340028Y-49770761D01*
X40073361Y-49123142D02*
X40606695Y-49123142D01*
X39768600Y-49313618D02*
X40340028Y-49504095D01*
X40340028Y-49504095D02*
X40340028Y-49008856D01*
X60652145Y-65271166D02*
X61223573Y-65271166D01*
X61223573Y-65271166D02*
X61337859Y-65309261D01*
X61337859Y-65309261D02*
X61414050Y-65385452D01*
X61414050Y-65385452D02*
X61452145Y-65499737D01*
X61452145Y-65499737D02*
X61452145Y-65575928D01*
X61452145Y-64471166D02*
X61452145Y-64928309D01*
X61452145Y-64699737D02*
X60652145Y-64699737D01*
X60652145Y-64699737D02*
X60766430Y-64775928D01*
X60766430Y-64775928D02*
X60842621Y-64852118D01*
X60842621Y-64852118D02*
X60880716Y-64928309D01*
X64674571Y-34982190D02*
X63684095Y-34982190D01*
X63684095Y-34982190D02*
X63684095Y-35591713D01*
X63684095Y-35591713D02*
X64674571Y-35591713D01*
X64484095Y-34182190D02*
X64484095Y-34639333D01*
X64484095Y-34410761D02*
X63684095Y-34410761D01*
X63684095Y-34410761D02*
X63798380Y-34486952D01*
X63798380Y-34486952D02*
X63874571Y-34563142D01*
X63874571Y-34563142D02*
X63912666Y-34639333D01*
X39119095Y-38410761D02*
X38738142Y-38677428D01*
X39119095Y-38867904D02*
X38319095Y-38867904D01*
X38319095Y-38867904D02*
X38319095Y-38563142D01*
X38319095Y-38563142D02*
X38357190Y-38486952D01*
X38357190Y-38486952D02*
X38395285Y-38448857D01*
X38395285Y-38448857D02*
X38471476Y-38410761D01*
X38471476Y-38410761D02*
X38585761Y-38410761D01*
X38585761Y-38410761D02*
X38661952Y-38448857D01*
X38661952Y-38448857D02*
X38700047Y-38486952D01*
X38700047Y-38486952D02*
X38738142Y-38563142D01*
X38738142Y-38563142D02*
X38738142Y-38867904D01*
X39119095Y-38067904D02*
X38319095Y-38067904D01*
X38319095Y-38067904D02*
X38319095Y-37763142D01*
X38319095Y-37763142D02*
X38357190Y-37686952D01*
X38357190Y-37686952D02*
X38395285Y-37648857D01*
X38395285Y-37648857D02*
X38471476Y-37610761D01*
X38471476Y-37610761D02*
X38585761Y-37610761D01*
X38585761Y-37610761D02*
X38661952Y-37648857D01*
X38661952Y-37648857D02*
X38700047Y-37686952D01*
X38700047Y-37686952D02*
X38738142Y-37763142D01*
X38738142Y-37763142D02*
X38738142Y-38067904D01*
X38395285Y-37306000D02*
X38357190Y-37267904D01*
X38357190Y-37267904D02*
X38319095Y-37191714D01*
X38319095Y-37191714D02*
X38319095Y-37001238D01*
X38319095Y-37001238D02*
X38357190Y-36925047D01*
X38357190Y-36925047D02*
X38395285Y-36886952D01*
X38395285Y-36886952D02*
X38471476Y-36848857D01*
X38471476Y-36848857D02*
X38547666Y-36848857D01*
X38547666Y-36848857D02*
X38661952Y-36886952D01*
X38661952Y-36886952D02*
X39119095Y-37344095D01*
X39119095Y-37344095D02*
X39119095Y-36848857D01*
X38319095Y-36353618D02*
X38319095Y-36277428D01*
X38319095Y-36277428D02*
X38357190Y-36201237D01*
X38357190Y-36201237D02*
X38395285Y-36163142D01*
X38395285Y-36163142D02*
X38471476Y-36125047D01*
X38471476Y-36125047D02*
X38623857Y-36086952D01*
X38623857Y-36086952D02*
X38814333Y-36086952D01*
X38814333Y-36086952D02*
X38966714Y-36125047D01*
X38966714Y-36125047D02*
X39042904Y-36163142D01*
X39042904Y-36163142D02*
X39081000Y-36201237D01*
X39081000Y-36201237D02*
X39119095Y-36277428D01*
X39119095Y-36277428D02*
X39119095Y-36353618D01*
X39119095Y-36353618D02*
X39081000Y-36429809D01*
X39081000Y-36429809D02*
X39042904Y-36467904D01*
X39042904Y-36467904D02*
X38966714Y-36505999D01*
X38966714Y-36505999D02*
X38814333Y-36544095D01*
X38814333Y-36544095D02*
X38623857Y-36544095D01*
X38623857Y-36544095D02*
X38471476Y-36505999D01*
X38471476Y-36505999D02*
X38395285Y-36467904D01*
X38395285Y-36467904D02*
X38357190Y-36429809D01*
X38357190Y-36429809D02*
X38319095Y-36353618D01*
X38585761Y-35401237D02*
X39119095Y-35401237D01*
X38281000Y-35591713D02*
X38852428Y-35782190D01*
X38852428Y-35782190D02*
X38852428Y-35286951D01*
X38319095Y-34829808D02*
X38319095Y-34753618D01*
X38319095Y-34753618D02*
X38357190Y-34677427D01*
X38357190Y-34677427D02*
X38395285Y-34639332D01*
X38395285Y-34639332D02*
X38471476Y-34601237D01*
X38471476Y-34601237D02*
X38623857Y-34563142D01*
X38623857Y-34563142D02*
X38814333Y-34563142D01*
X38814333Y-34563142D02*
X38966714Y-34601237D01*
X38966714Y-34601237D02*
X39042904Y-34639332D01*
X39042904Y-34639332D02*
X39081000Y-34677427D01*
X39081000Y-34677427D02*
X39119095Y-34753618D01*
X39119095Y-34753618D02*
X39119095Y-34829808D01*
X39119095Y-34829808D02*
X39081000Y-34905999D01*
X39081000Y-34905999D02*
X39042904Y-34944094D01*
X39042904Y-34944094D02*
X38966714Y-34982189D01*
X38966714Y-34982189D02*
X38814333Y-35020285D01*
X38814333Y-35020285D02*
X38623857Y-35020285D01*
X38623857Y-35020285D02*
X38471476Y-34982189D01*
X38471476Y-34982189D02*
X38395285Y-34944094D01*
X38395285Y-34944094D02*
X38357190Y-34905999D01*
X38357190Y-34905999D02*
X38319095Y-34829808D01*
X38814333Y-34220284D02*
X38814333Y-33610761D01*
X38319095Y-33305999D02*
X38319095Y-32772665D01*
X38319095Y-32772665D02*
X39119095Y-33305999D01*
X39119095Y-33305999D02*
X39119095Y-32772665D01*
X39081000Y-32163141D02*
X39119095Y-32239332D01*
X39119095Y-32239332D02*
X39119095Y-32391713D01*
X39119095Y-32391713D02*
X39081000Y-32467903D01*
X39081000Y-32467903D02*
X39004809Y-32505999D01*
X39004809Y-32505999D02*
X38700047Y-32505999D01*
X38700047Y-32505999D02*
X38623857Y-32467903D01*
X38623857Y-32467903D02*
X38585761Y-32391713D01*
X38585761Y-32391713D02*
X38585761Y-32239332D01*
X38585761Y-32239332D02*
X38623857Y-32163141D01*
X38623857Y-32163141D02*
X38700047Y-32125046D01*
X38700047Y-32125046D02*
X38776238Y-32125046D01*
X38776238Y-32125046D02*
X38852428Y-32505999D01*
X39119095Y-31782189D02*
X38585761Y-31782189D01*
X38738142Y-31782189D02*
X38661952Y-31744094D01*
X38661952Y-31744094D02*
X38623857Y-31705999D01*
X38623857Y-31705999D02*
X38585761Y-31629808D01*
X38585761Y-31629808D02*
X38585761Y-31553618D01*
X39119095Y-31172666D02*
X39081000Y-31248856D01*
X39081000Y-31248856D02*
X39042904Y-31286951D01*
X39042904Y-31286951D02*
X38966714Y-31325047D01*
X38966714Y-31325047D02*
X38738142Y-31325047D01*
X38738142Y-31325047D02*
X38661952Y-31286951D01*
X38661952Y-31286951D02*
X38623857Y-31248856D01*
X38623857Y-31248856D02*
X38585761Y-31172666D01*
X38585761Y-31172666D02*
X38585761Y-31058380D01*
X38585761Y-31058380D02*
X38623857Y-30982189D01*
X38623857Y-30982189D02*
X38661952Y-30944094D01*
X38661952Y-30944094D02*
X38738142Y-30905999D01*
X38738142Y-30905999D02*
X38966714Y-30905999D01*
X38966714Y-30905999D02*
X39042904Y-30944094D01*
X39042904Y-30944094D02*
X39081000Y-30982189D01*
X39081000Y-30982189D02*
X39119095Y-31058380D01*
X39119095Y-31058380D02*
X39119095Y-31172666D01*
X32061695Y-48350523D02*
X32709314Y-48350523D01*
X32709314Y-48350523D02*
X32785504Y-48312428D01*
X32785504Y-48312428D02*
X32823600Y-48274333D01*
X32823600Y-48274333D02*
X32861695Y-48198142D01*
X32861695Y-48198142D02*
X32861695Y-48045761D01*
X32861695Y-48045761D02*
X32823600Y-47969571D01*
X32823600Y-47969571D02*
X32785504Y-47931476D01*
X32785504Y-47931476D02*
X32709314Y-47893380D01*
X32709314Y-47893380D02*
X32061695Y-47893380D01*
X32061695Y-47131476D02*
X32061695Y-47512428D01*
X32061695Y-47512428D02*
X32442647Y-47550524D01*
X32442647Y-47550524D02*
X32404552Y-47512428D01*
X32404552Y-47512428D02*
X32366457Y-47436238D01*
X32366457Y-47436238D02*
X32366457Y-47245762D01*
X32366457Y-47245762D02*
X32404552Y-47169571D01*
X32404552Y-47169571D02*
X32442647Y-47131476D01*
X32442647Y-47131476D02*
X32518838Y-47093381D01*
X32518838Y-47093381D02*
X32709314Y-47093381D01*
X32709314Y-47093381D02*
X32785504Y-47131476D01*
X32785504Y-47131476D02*
X32823600Y-47169571D01*
X32823600Y-47169571D02*
X32861695Y-47245762D01*
X32861695Y-47245762D02*
X32861695Y-47436238D01*
X32861695Y-47436238D02*
X32823600Y-47512428D01*
X32823600Y-47512428D02*
X32785504Y-47550524D01*
X25520609Y-45105895D02*
X26053943Y-45105895D01*
X26053943Y-45105895D02*
X25711085Y-45905895D01*
X26701562Y-45372561D02*
X26701562Y-45905895D01*
X26511086Y-45067800D02*
X26320609Y-45639228D01*
X26320609Y-45639228D02*
X26815848Y-45639228D01*
X27082514Y-45677323D02*
X27463467Y-45677323D01*
X27006324Y-45905895D02*
X27272991Y-45105895D01*
X27272991Y-45105895D02*
X27539657Y-45905895D01*
X27806324Y-45905895D02*
X27806324Y-45105895D01*
X27806324Y-45486847D02*
X28263467Y-45486847D01*
X28263467Y-45905895D02*
X28263467Y-45105895D01*
X29101562Y-45829704D02*
X29063466Y-45867800D01*
X29063466Y-45867800D02*
X28949181Y-45905895D01*
X28949181Y-45905895D02*
X28872990Y-45905895D01*
X28872990Y-45905895D02*
X28758704Y-45867800D01*
X28758704Y-45867800D02*
X28682514Y-45791609D01*
X28682514Y-45791609D02*
X28644419Y-45715419D01*
X28644419Y-45715419D02*
X28606323Y-45563038D01*
X28606323Y-45563038D02*
X28606323Y-45448752D01*
X28606323Y-45448752D02*
X28644419Y-45296371D01*
X28644419Y-45296371D02*
X28682514Y-45220180D01*
X28682514Y-45220180D02*
X28758704Y-45143990D01*
X28758704Y-45143990D02*
X28872990Y-45105895D01*
X28872990Y-45105895D02*
X28949181Y-45105895D01*
X28949181Y-45105895D02*
X29063466Y-45143990D01*
X29063466Y-45143990D02*
X29101562Y-45182085D01*
X29330133Y-45105895D02*
X29787276Y-45105895D01*
X29558704Y-45905895D02*
X29558704Y-45105895D01*
X30472990Y-45905895D02*
X30015847Y-45905895D01*
X30244419Y-45905895D02*
X30244419Y-45105895D01*
X30244419Y-45105895D02*
X30168228Y-45220180D01*
X30168228Y-45220180D02*
X30092038Y-45296371D01*
X30092038Y-45296371D02*
X30015847Y-45334466D01*
X31234895Y-45143990D02*
X31158705Y-45105895D01*
X31158705Y-45105895D02*
X31044419Y-45105895D01*
X31044419Y-45105895D02*
X30930133Y-45143990D01*
X30930133Y-45143990D02*
X30853943Y-45220180D01*
X30853943Y-45220180D02*
X30815848Y-45296371D01*
X30815848Y-45296371D02*
X30777752Y-45448752D01*
X30777752Y-45448752D02*
X30777752Y-45563038D01*
X30777752Y-45563038D02*
X30815848Y-45715419D01*
X30815848Y-45715419D02*
X30853943Y-45791609D01*
X30853943Y-45791609D02*
X30930133Y-45867800D01*
X30930133Y-45867800D02*
X31044419Y-45905895D01*
X31044419Y-45905895D02*
X31120610Y-45905895D01*
X31120610Y-45905895D02*
X31234895Y-45867800D01*
X31234895Y-45867800D02*
X31272991Y-45829704D01*
X31272991Y-45829704D02*
X31272991Y-45563038D01*
X31272991Y-45563038D02*
X31120610Y-45563038D01*
X31615848Y-45105895D02*
X31615848Y-45753514D01*
X31615848Y-45753514D02*
X31653943Y-45829704D01*
X31653943Y-45829704D02*
X31692038Y-45867800D01*
X31692038Y-45867800D02*
X31768229Y-45905895D01*
X31768229Y-45905895D02*
X31920610Y-45905895D01*
X31920610Y-45905895D02*
X31996800Y-45867800D01*
X31996800Y-45867800D02*
X32034895Y-45829704D01*
X32034895Y-45829704D02*
X32072991Y-45753514D01*
X32072991Y-45753514D02*
X32072991Y-45105895D01*
X32606324Y-45105895D02*
X32682514Y-45105895D01*
X32682514Y-45105895D02*
X32758705Y-45143990D01*
X32758705Y-45143990D02*
X32796800Y-45182085D01*
X32796800Y-45182085D02*
X32834895Y-45258276D01*
X32834895Y-45258276D02*
X32872990Y-45410657D01*
X32872990Y-45410657D02*
X32872990Y-45601133D01*
X32872990Y-45601133D02*
X32834895Y-45753514D01*
X32834895Y-45753514D02*
X32796800Y-45829704D01*
X32796800Y-45829704D02*
X32758705Y-45867800D01*
X32758705Y-45867800D02*
X32682514Y-45905895D01*
X32682514Y-45905895D02*
X32606324Y-45905895D01*
X32606324Y-45905895D02*
X32530133Y-45867800D01*
X32530133Y-45867800D02*
X32492038Y-45829704D01*
X32492038Y-45829704D02*
X32453943Y-45753514D01*
X32453943Y-45753514D02*
X32415847Y-45601133D01*
X32415847Y-45601133D02*
X32415847Y-45410657D01*
X32415847Y-45410657D02*
X32453943Y-45258276D01*
X32453943Y-45258276D02*
X32492038Y-45182085D01*
X32492038Y-45182085D02*
X32530133Y-45143990D01*
X32530133Y-45143990D02*
X32606324Y-45105895D01*
X33558705Y-45372561D02*
X33558705Y-45905895D01*
X33368229Y-45067800D02*
X33177752Y-45639228D01*
X33177752Y-45639228D02*
X33672991Y-45639228D01*
X31462276Y-32458295D02*
X31462276Y-33105914D01*
X31462276Y-33105914D02*
X31500371Y-33182104D01*
X31500371Y-33182104D02*
X31538466Y-33220200D01*
X31538466Y-33220200D02*
X31614657Y-33258295D01*
X31614657Y-33258295D02*
X31767038Y-33258295D01*
X31767038Y-33258295D02*
X31843228Y-33220200D01*
X31843228Y-33220200D02*
X31881323Y-33182104D01*
X31881323Y-33182104D02*
X31919419Y-33105914D01*
X31919419Y-33105914D02*
X31919419Y-32458295D01*
X32224180Y-32458295D02*
X32719418Y-32458295D01*
X32719418Y-32458295D02*
X32452752Y-32763057D01*
X32452752Y-32763057D02*
X32567037Y-32763057D01*
X32567037Y-32763057D02*
X32643228Y-32801152D01*
X32643228Y-32801152D02*
X32681323Y-32839247D01*
X32681323Y-32839247D02*
X32719418Y-32915438D01*
X32719418Y-32915438D02*
X32719418Y-33105914D01*
X32719418Y-33105914D02*
X32681323Y-33182104D01*
X32681323Y-33182104D02*
X32643228Y-33220200D01*
X32643228Y-33220200D02*
X32567037Y-33258295D01*
X32567037Y-33258295D02*
X32338466Y-33258295D01*
X32338466Y-33258295D02*
X32262275Y-33220200D01*
X32262275Y-33220200D02*
X32224180Y-33182104D01*
X31636695Y-40595543D02*
X31636695Y-40062209D01*
X31636695Y-40062209D02*
X32436695Y-40405067D01*
X31903361Y-39414590D02*
X32436695Y-39414590D01*
X31598600Y-39605066D02*
X32170028Y-39795543D01*
X32170028Y-39795543D02*
X32170028Y-39300304D01*
X32208123Y-39033638D02*
X32208123Y-38652685D01*
X32436695Y-39109828D02*
X31636695Y-38843161D01*
X31636695Y-38843161D02*
X32436695Y-38576495D01*
X32436695Y-38309828D02*
X31636695Y-38309828D01*
X32017647Y-38309828D02*
X32017647Y-37852685D01*
X32436695Y-37852685D02*
X31636695Y-37852685D01*
X32360504Y-37014590D02*
X32398600Y-37052686D01*
X32398600Y-37052686D02*
X32436695Y-37166971D01*
X32436695Y-37166971D02*
X32436695Y-37243162D01*
X32436695Y-37243162D02*
X32398600Y-37357448D01*
X32398600Y-37357448D02*
X32322409Y-37433638D01*
X32322409Y-37433638D02*
X32246219Y-37471733D01*
X32246219Y-37471733D02*
X32093838Y-37509829D01*
X32093838Y-37509829D02*
X31979552Y-37509829D01*
X31979552Y-37509829D02*
X31827171Y-37471733D01*
X31827171Y-37471733D02*
X31750980Y-37433638D01*
X31750980Y-37433638D02*
X31674790Y-37357448D01*
X31674790Y-37357448D02*
X31636695Y-37243162D01*
X31636695Y-37243162D02*
X31636695Y-37166971D01*
X31636695Y-37166971D02*
X31674790Y-37052686D01*
X31674790Y-37052686D02*
X31712885Y-37014590D01*
X31636695Y-36786019D02*
X31636695Y-36328876D01*
X32436695Y-36557448D02*
X31636695Y-36557448D01*
X31636695Y-35681257D02*
X31636695Y-36062209D01*
X31636695Y-36062209D02*
X32017647Y-36100305D01*
X32017647Y-36100305D02*
X31979552Y-36062209D01*
X31979552Y-36062209D02*
X31941457Y-35986019D01*
X31941457Y-35986019D02*
X31941457Y-35795543D01*
X31941457Y-35795543D02*
X31979552Y-35719352D01*
X31979552Y-35719352D02*
X32017647Y-35681257D01*
X32017647Y-35681257D02*
X32093838Y-35643162D01*
X32093838Y-35643162D02*
X32284314Y-35643162D01*
X32284314Y-35643162D02*
X32360504Y-35681257D01*
X32360504Y-35681257D02*
X32398600Y-35719352D01*
X32398600Y-35719352D02*
X32436695Y-35795543D01*
X32436695Y-35795543D02*
X32436695Y-35986019D01*
X32436695Y-35986019D02*
X32398600Y-36062209D01*
X32398600Y-36062209D02*
X32360504Y-36100305D01*
X32436695Y-35262209D02*
X32436695Y-35109828D01*
X32436695Y-35109828D02*
X32398600Y-35033638D01*
X32398600Y-35033638D02*
X32360504Y-34995542D01*
X32360504Y-34995542D02*
X32246219Y-34919352D01*
X32246219Y-34919352D02*
X32093838Y-34881257D01*
X32093838Y-34881257D02*
X31789076Y-34881257D01*
X31789076Y-34881257D02*
X31712885Y-34919352D01*
X31712885Y-34919352D02*
X31674790Y-34957447D01*
X31674790Y-34957447D02*
X31636695Y-35033638D01*
X31636695Y-35033638D02*
X31636695Y-35186019D01*
X31636695Y-35186019D02*
X31674790Y-35262209D01*
X31674790Y-35262209D02*
X31712885Y-35300304D01*
X31712885Y-35300304D02*
X31789076Y-35338400D01*
X31789076Y-35338400D02*
X31979552Y-35338400D01*
X31979552Y-35338400D02*
X32055742Y-35300304D01*
X32055742Y-35300304D02*
X32093838Y-35262209D01*
X32093838Y-35262209D02*
X32131933Y-35186019D01*
X32131933Y-35186019D02*
X32131933Y-35033638D01*
X32131933Y-35033638D02*
X32093838Y-34957447D01*
X32093838Y-34957447D02*
X32055742Y-34919352D01*
X32055742Y-34919352D02*
X31979552Y-34881257D01*
X31636695Y-34157447D02*
X31636695Y-34538399D01*
X31636695Y-34538399D02*
X32017647Y-34576495D01*
X32017647Y-34576495D02*
X31979552Y-34538399D01*
X31979552Y-34538399D02*
X31941457Y-34462209D01*
X31941457Y-34462209D02*
X31941457Y-34271733D01*
X31941457Y-34271733D02*
X31979552Y-34195542D01*
X31979552Y-34195542D02*
X32017647Y-34157447D01*
X32017647Y-34157447D02*
X32093838Y-34119352D01*
X32093838Y-34119352D02*
X32284314Y-34119352D01*
X32284314Y-34119352D02*
X32360504Y-34157447D01*
X32360504Y-34157447D02*
X32398600Y-34195542D01*
X32398600Y-34195542D02*
X32436695Y-34271733D01*
X32436695Y-34271733D02*
X32436695Y-34462209D01*
X32436695Y-34462209D02*
X32398600Y-34538399D01*
X32398600Y-34538399D02*
X32360504Y-34576495D01*
%TO.C,U2*%
D12*
X50576800Y-45356000D02*
X58296800Y-45356000D01*
X50576800Y-45591000D02*
X50576800Y-45356000D01*
X50576800Y-58376000D02*
X50576800Y-58141000D01*
X58296800Y-45356000D02*
X58296800Y-45591000D01*
X58296800Y-58141000D02*
X58296800Y-58376000D01*
X58296800Y-58376000D02*
X50576800Y-58376000D01*
X49786800Y-45586000D02*
X49446800Y-45116000D01*
X50126800Y-45116000D01*
X49786800Y-45586000D01*
G36*
X49786800Y-45586000D02*
G01*
X49446800Y-45116000D01*
X50126800Y-45116000D01*
X49786800Y-45586000D01*
G37*
%TO.C,U4*%
X36381800Y-45356000D02*
X44101800Y-45356000D01*
X36381800Y-45591000D02*
X36381800Y-45356000D01*
X36381800Y-58376000D02*
X36381800Y-58141000D01*
X44101800Y-45356000D02*
X44101800Y-45591000D01*
X44101800Y-58141000D02*
X44101800Y-58376000D01*
X44101800Y-58376000D02*
X36381800Y-58376000D01*
X35591800Y-45586000D02*
X35251800Y-45116000D01*
X35931800Y-45116000D01*
X35591800Y-45586000D01*
G36*
X35591800Y-45586000D02*
G01*
X35251800Y-45116000D01*
X35931800Y-45116000D01*
X35591800Y-45586000D01*
G37*
%TO.C,\u220F1*%
D13*
X39869200Y-26906000D02*
X39869200Y-28906000D01*
X39869200Y-30746000D02*
X39869200Y-31446000D01*
X39869200Y-33286000D02*
X39869200Y-33986000D01*
X39869200Y-35826000D02*
X39869200Y-36526000D01*
X39869200Y-38366000D02*
X39869200Y-39066000D01*
X39869200Y-40906000D02*
X39869200Y-42906000D01*
X43079200Y-25906000D02*
X42379200Y-25906000D01*
X43079200Y-43906000D02*
X42379200Y-43906000D01*
X45619200Y-25906000D02*
X44919200Y-25906000D01*
X45619200Y-43906000D02*
X44919200Y-43906000D01*
X48159200Y-25906000D02*
X47459200Y-25906000D01*
X48159200Y-43906000D02*
X47459200Y-43906000D01*
X50699200Y-25906000D02*
X49999200Y-25906000D01*
X50699200Y-43906000D02*
X49999200Y-43906000D01*
X53239200Y-25906000D02*
X52539200Y-25906000D01*
X53239200Y-43906000D02*
X52539200Y-43906000D01*
X55779200Y-25906000D02*
X55079200Y-25906000D01*
X55779200Y-43906000D02*
X55079200Y-43906000D01*
X58319200Y-25906000D02*
X57619200Y-25906000D01*
X58319200Y-43906000D02*
X57619200Y-43906000D01*
X60859200Y-25906000D02*
X60159200Y-25906000D01*
X60859200Y-43906000D02*
X60159200Y-43906000D01*
X63369200Y-42906000D02*
X63369200Y-26906000D01*
X39869802Y-26906000D02*
G75*
G02*
X40556192Y-25956883I999398J0D01*
G01*
X40608369Y-43869389D02*
G75*
G02*
X39869203Y-42906000I258231J963389D01*
G01*
X62679200Y-25956000D02*
G75*
G02*
X63368499Y-26906000I-310000J-949999D01*
G01*
X63368500Y-42906000D02*
G75*
G02*
X62679200Y-43856000I-999300J0D01*
G01*
D14*
X61879200Y-44816000D02*
G75*
G02*
X61679200Y-44816000I-100000J0D01*
G01*
X61679200Y-44816000D02*
G75*
G02*
X61879200Y-44816000I100000J0D01*
G01*
%TO.C,U5*%
D12*
X29496800Y-49351000D02*
X28696800Y-49351000D01*
X29496800Y-49351000D02*
X30296800Y-49351000D01*
X30496800Y-46131000D02*
X28696800Y-46131000D01*
X30796800Y-49301000D02*
X31036800Y-49631000D01*
X30556800Y-49631000D01*
X30796800Y-49301000D01*
G36*
X31036800Y-49631000D02*
G01*
X30556800Y-49631000D01*
X30796800Y-49301000D01*
X31036800Y-49631000D01*
G37*
%TO.C,U3*%
X30011800Y-32278400D02*
X34131800Y-32278400D01*
X30011800Y-32333400D02*
X30011800Y-32278400D01*
X30011800Y-42398400D02*
X30011800Y-42343400D01*
X34131800Y-32278400D02*
X34131800Y-32333400D01*
X34131800Y-42343400D02*
X34131800Y-42398400D01*
X34131800Y-42398400D02*
X30011800Y-42398400D01*
X29471800Y-32328400D02*
X29231800Y-31998400D01*
X29711800Y-31998400D01*
X29471800Y-32328400D01*
G36*
X29471800Y-32328400D02*
G01*
X29231800Y-31998400D01*
X29711800Y-31998400D01*
X29471800Y-32328400D01*
G37*
%TD*%
M02*
