%TF.GenerationSoftware,KiCad,Pcbnew,10.0.3*%
%TF.CreationDate,2026-08-31T23:08:02-04:00*%
%TF.ProjectId,a2k6c,61326b36-632e-46b6-9963-61645f706362,rev?*%
%TF.SameCoordinates,Original*%
%TF.FileFunction,Soldermask,Top*%
%TF.FilePolarity,Negative*%
%FSLAX46Y46*%
G04 Gerber Fmt 4.6, Leading zero omitted, Abs format (unit mm)*
G04 Created by KiCad (PCBNEW 10.0.3) date 2026-08-31 23:08:02*
%MOMM*%
%LPD*%
G01*
G04 APERTURE LIST*
G04 Aperture macros list*
%AMRoundRect*
0 Rectangle with rounded corners*
0 $1 Rounding radius*
0 $2 $3 $4 $5 $6 $7 $8 $9 X,Y pos of 4 corners*
0 Add a 4 corners polygon primitive as box body*
4,1,4,$2,$3,$4,$5,$6,$7,$8,$9,$2,$3,0*
0 Add four circle primitives for the rounded corners*
1,1,$1+$1,$2,$3*
1,1,$1+$1,$4,$5*
1,1,$1+$1,$6,$7*
1,1,$1+$1,$8,$9*
0 Add four rect primitives between the rounded corners*
20,1,$1+$1,$2,$3,$4,$5,0*
20,1,$1+$1,$4,$5,$6,$7,0*
20,1,$1+$1,$6,$7,$8,$9,0*
20,1,$1+$1,$8,$9,$2,$3,0*%
G04 Aperture macros list end*
%ADD10RoundRect,0.150000X-0.875000X-0.150000X0.875000X-0.150000X0.875000X0.150000X-0.875000X0.150000X0*%
%ADD11RoundRect,0.100000X-0.762000X-3.238500X0.762000X-3.238500X0.762000X3.238500X-0.762000X3.238500X0*%
%ADD12RoundRect,0.250000X-0.550000X-0.550000X0.550000X-0.550000X0.550000X0.550000X-0.550000X0.550000X0*%
%ADD13C,1.600000*%
%ADD14RoundRect,0.248674X0.501326X-0.876326X0.501326X0.876326X-0.501326X0.876326X-0.501326X-0.876326X0*%
%ADD15RoundRect,0.282493X0.569507X-0.944507X0.569507X0.944507X-0.569507X0.944507X-0.569507X-0.944507X0*%
%ADD16RoundRect,0.282493X-0.944507X-0.569507X0.944507X-0.569507X0.944507X0.569507X-0.944507X0.569507X0*%
%ADD17RoundRect,0.248674X-0.501326X0.876326X-0.501326X-0.876326X0.501326X-0.876326X0.501326X0.876326X0*%
%ADD18RoundRect,0.282493X-0.569507X0.944507X-0.569507X-0.944507X0.569507X-0.944507X0.569507X0.944507X0*%
%ADD19RoundRect,0.162500X0.617500X0.162500X-0.617500X0.162500X-0.617500X-0.162500X0.617500X-0.162500X0*%
%ADD20RoundRect,0.150000X-0.825000X-0.150000X0.825000X-0.150000X0.825000X0.150000X-0.825000X0.150000X0*%
G04 APERTURE END LIST*
D10*
%TO.C,U2*%
X49786800Y-46151000D03*
X49786800Y-47421000D03*
X49786800Y-48691000D03*
X49786800Y-49961000D03*
X49786800Y-51231000D03*
X49786800Y-52501000D03*
X49786800Y-53771000D03*
X49786800Y-55041000D03*
X49786800Y-56311000D03*
X49786800Y-57581000D03*
X59086800Y-57581000D03*
X59086800Y-56311000D03*
X59086800Y-55041000D03*
X59086800Y-53771000D03*
X59086800Y-52501000D03*
X59086800Y-51231000D03*
X59086800Y-49961000D03*
X59086800Y-48691000D03*
X59086800Y-47421000D03*
X59086800Y-46151000D03*
%TD*%
%TO.C,U4*%
X35591800Y-46151000D03*
X35591800Y-47421000D03*
X35591800Y-48691000D03*
X35591800Y-49961000D03*
X35591800Y-51231000D03*
X35591800Y-52501000D03*
X35591800Y-53771000D03*
X35591800Y-55041000D03*
X35591800Y-56311000D03*
X35591800Y-57581000D03*
X44891800Y-57581000D03*
X44891800Y-56311000D03*
X44891800Y-55041000D03*
X44891800Y-53771000D03*
X44891800Y-52501000D03*
X44891800Y-51231000D03*
X44891800Y-49961000D03*
X44891800Y-48691000D03*
X44891800Y-47421000D03*
X44891800Y-46151000D03*
%TD*%
D11*
%TO.C,J1*%
X31667500Y-65004500D03*
X34207500Y-65004500D03*
X36747500Y-65004500D03*
X39287500Y-65004500D03*
X41827500Y-65004500D03*
X44367500Y-65004500D03*
X46907500Y-65004500D03*
X49447500Y-65004500D03*
X51987500Y-65004500D03*
X54527500Y-65004500D03*
X57067500Y-65004500D03*
X59607500Y-65004500D03*
%TD*%
D12*
%TO.C,J3*%
X30181600Y-26320800D03*
D13*
X33781600Y-26320800D03*
X37381600Y-26320800D03*
%TD*%
D14*
%TO.C,\u220F1*%
X61779200Y-43026000D03*
D15*
X59239200Y-43026000D03*
X56699200Y-43026000D03*
X54159200Y-43026000D03*
X51619200Y-43026000D03*
X49079200Y-43026000D03*
X46539200Y-43026000D03*
X43999200Y-43026000D03*
X41459200Y-43026000D03*
D16*
X40959200Y-39986000D03*
X40959200Y-37446000D03*
X40959200Y-34906000D03*
X40959200Y-32366000D03*
X40959200Y-29826000D03*
D17*
X41459200Y-26786000D03*
D18*
X43999200Y-26786000D03*
X46539200Y-26786000D03*
X49079200Y-26786000D03*
X51619200Y-26786000D03*
X54159200Y-26786000D03*
X56699200Y-26786000D03*
X59239200Y-26786000D03*
D17*
X61779200Y-26786000D03*
%TD*%
D19*
%TO.C,U5*%
X30946800Y-48691000D03*
X30946800Y-47741000D03*
X30946800Y-46791000D03*
X28246800Y-46791000D03*
X28246800Y-48691000D03*
%TD*%
D20*
%TO.C,U3*%
X29596800Y-32893400D03*
X29596800Y-34163400D03*
X29596800Y-35433400D03*
X29596800Y-36703400D03*
X29596800Y-37973400D03*
X29596800Y-39243400D03*
X29596800Y-40513400D03*
X29596800Y-41783400D03*
X34546800Y-41783400D03*
X34546800Y-40513400D03*
X34546800Y-39243400D03*
X34546800Y-37973400D03*
X34546800Y-36703400D03*
X34546800Y-35433400D03*
X34546800Y-34163400D03*
X34546800Y-32893400D03*
%TD*%
D12*
%TO.C,J2*%
X28381600Y-28120800D03*
D13*
X31981600Y-28120800D03*
X35581600Y-28120800D03*
%TD*%
M02*
